<svg width="16" height="16" viewBox="0 0 16 16" fill="none" xmlns="http://www.w3.org/2000/svg">
<g clip-path="url(#clip0_34_9)">
<path d="M6.44301 15.2C6.44301 15.642 6.23401 16 5.97651 16C5.71901 16 5.51001 15.6418 5.51001 15.2V13.3518C5.51001 12.9098 5.71876 12.5518 5.97651 12.5518C6.23401 12.5518 6.44301 12.91 6.44301 13.3518V15.2ZM9.89651 15.2C9.89651 15.642 9.68751 16 9.43001 16C9.17251 16 8.96351 15.6418 8.96351 15.2V13.3518C8.96351 12.9098 9.17251 12.5518 9.43001 12.5518C9.68751 12.5518 9.89651 12.91 9.89651 13.3518V15.2Z" fill="#F79420"/>
<path d="M0.0666504 10.235C0.0666504 9.18552 1.59165 9.50102 2.80865 9.50102C4.02665 9.50102 5.1084 9.48152 5.1084 10.5305C5.1084 11.5815 4.1209 12.4323 2.9039 12.4323C1.6859 12.4323 0.0666504 11.2858 0.0666504 10.235ZM15.9334 10.235C15.9334 9.18552 14.4084 9.50102 13.1902 9.50102C11.9724 9.50102 10.8907 9.48152 10.8907 10.5305C10.8907 11.5815 11.8782 12.4323 13.0959 12.4323C14.3132 12.4323 15.9334 11.2858 15.9334 10.235Z" fill="#58767D"/>
<path d="M2.00757 9.53243C2.00757 11.9467 4.70207 13.9022 8.03007 13.9022C11.3573 13.9022 14.0526 11.9469 14.0526 9.53243C14.0526 7.12043 11.3573 1.16943 8.03007 1.16943C4.70207 1.16943 2.00757 7.12043 2.00757 9.53243Z" fill="#7094A6"/>
<path d="M5.56381 6.84376C6.24478 6.84376 6.79681 6.17443 6.79681 5.34876C6.79681 4.52309 6.24478 3.85376 5.56381 3.85376C4.88284 3.85376 4.33081 4.52309 4.33081 5.34876C4.33081 6.17443 4.88284 6.84376 5.56381 6.84376Z" fill="#F4F5F5"/>
<path d="M6.38185 5.40631C6.38185 5.95431 6.01535 6.39831 5.56435 6.39831C5.11235 6.39831 4.74585 5.95456 4.74585 5.40631C4.74585 4.85906 5.11235 4.41431 5.56435 4.41431C6.01535 4.41431 6.38185 4.85906 6.38185 5.40631Z" fill="#25333A"/>
<path d="M10.505 6.84376C11.1859 6.84376 11.738 6.17443 11.738 5.34876C11.738 4.52309 11.1859 3.85376 10.505 3.85376C9.82401 3.85376 9.27197 4.52309 9.27197 5.34876C9.27197 6.17443 9.82401 6.84376 10.505 6.84376Z" fill="#F4F5F5"/>
<path d="M10.505 6.39831C10.9566 6.39831 11.3228 5.95417 11.3228 5.40631C11.3228 4.85844 10.9566 4.41431 10.505 4.41431C10.0534 4.41431 9.68726 4.85844 9.68726 5.40631C9.68726 5.95417 10.0534 6.39831 10.505 6.39831Z" fill="#25333A"/>
<path d="M6.50757 6.92306C6.50757 6.19931 7.18882 6.74606 8.02882 6.74606C8.86932 6.74606 9.54982 6.19931 9.54982 6.92306C9.54982 7.64806 8.86907 9.01756 8.02882 9.01756C7.18857 9.01756 6.50757 7.64806 6.50757 6.92306Z" fill="#F05A2A"/>
<path d="M6.50757 6.4295C6.50757 5.70575 7.18907 6.25225 8.02857 6.25225C8.86807 6.25225 9.54957 5.706 9.54957 6.4295C9.54957 7.15425 8.86807 8.52375 8.02857 8.52375C7.18907 8.52375 6.50757 7.15425 6.50757 6.4295Z" fill="#F79420"/>
</g>
<defs>
<clipPath id="clip0_34_9">
<rect width="16" height="16" fill="white"/>
</clipPath>
</defs>
</svg>
